<svg xmlns="http://www.w3.org/2000/svg" viewBox="0 0 512 512">
  <defs>
    <linearGradient id="toolbit-gradient" x1="0%" y1="0%" x2="100%" y2="100%">
      <stop offset="0%" style="stop-color:#5B9BFF"/>
      <stop offset="100%" style="stop-color:#1e40af"/>
    </linearGradient>
  </defs>
  <rect width="512" height="512" fill="url(#toolbit-gradient)" rx="64"/>
  <g fill="white" transform="translate(128, 100)">
    <!-- Wrench icon simplified -->
    <path d="M220 40c-15-15-37-19-56-12l35 35-25 25-35-35c-7 19-3 41 12 56 13 13 31 18 48 14l90 90c10 10 26 10 36 0s10-26 0-36l-90-90c4-17-1-35-15-47z"/>
    <!-- Code brackets -->
    <path d="M60 180l-50 70 50 70 20-15-40-55 40-55-20-15z"/>
    <path d="M196 180l50 70-50 70-20-15 40-55-40-55 20-15z"/>
  </g>
</svg>